<svg width="320" height="112" viewBox="0 0 320 112" fill="none" xmlns="http://www.w3.org/2000/svg">
<path d="M18.4106 79.727C19.7629 83.3054 21.6351 86.365 24.0276 88.9059C26.4201 91.4471 29.2544 93.3917 32.5307 94.7401C35.8073 96.0885 39.3698 96.7625 43.2184 96.7625C46.9632 96.7625 50.4735 96.0623 53.7501 94.6619C57.0268 93.2616 59.887 91.2911 62.3313 88.7503C64.7755 86.2091 66.674 83.1756 68.0263 79.6492C69.3785 76.1228 70.0545 72.1819 70.0545 67.8255V0.617188H86.4369V109.519H70.2106V99.407C66.5701 103.244 62.2792 106.2 57.3385 108.275C52.3975 110.349 47.0671 111.386 41.3462 111.386C35.5211 111.386 30.0864 110.375 25.0415 108.352C19.997 106.33 15.628 103.452 11.9358 99.7181C8.24349 95.9842 5.33076 91.499 3.19859 86.2611C1.06608 81.0234 0 75.1896 0 68.7588V0.617188H16.3824V67.8255C16.3824 72.1819 17.0583 76.1486 18.4106 79.727Z" fill="#F0F0EB"/>
<path d="M114.676 0.617188V40.2886C118.317 36.6586 122.53 33.7807 127.314 31.6544C132.099 29.528 137.3 28.465 142.916 28.465C148.741 28.465 154.202 29.5538 159.299 31.7318C164.395 33.9098 168.816 36.8658 172.561 40.5998C176.305 44.3338 179.27 48.7415 181.454 53.8235C183.638 58.9059 184.73 64.2991 184.73 70.0036C184.73 75.7076 183.638 81.0751 181.454 86.1051C179.27 91.1355 176.305 95.5177 172.561 99.251C168.816 102.985 164.395 105.941 159.299 108.119C154.202 110.297 148.741 111.386 142.916 111.386C137.299 111.386 132.073 110.323 127.236 108.196C122.399 106.07 118.161 103.192 114.52 99.5622V109.519H98.918V0.617188H114.676ZM116.47 80.738C117.874 84.0572 119.825 86.9612 122.321 89.4504C124.818 91.9397 127.73 93.9104 131.059 95.3625C134.387 96.8145 137.976 97.5405 141.824 97.5405C145.569 97.5405 149.105 96.8145 152.434 95.3625C155.762 93.9104 158.648 91.94 161.093 89.4504C163.537 86.9616 165.488 84.0572 166.944 80.738C168.4 77.4192 169.128 73.8412 169.128 70.0036C169.128 66.166 168.4 62.5617 166.944 59.1909C165.488 55.8201 163.537 52.8903 161.093 50.4011C158.649 47.9122 155.762 45.9672 152.434 44.5672C149.105 43.1672 145.569 42.4666 141.824 42.4666C138.08 42.4666 134.543 43.1668 131.215 44.5672C127.887 45.9676 124.974 47.9122 122.477 50.4011C119.981 52.8903 118.005 55.8201 116.549 59.1909C115.093 62.5617 114.364 66.166 114.364 70.0036C114.364 73.8412 115.066 77.4192 116.47 80.738Z" fill="#F0F0EB"/>
<path d="M193.62 53.9754C195.7 48.997 198.561 44.6151 202.201 40.8295C205.841 37.0439 210.158 34.0621 215.151 31.884C220.144 29.706 225.553 28.6172 231.377 28.6172C237.098 28.6172 242.403 29.6544 247.292 31.7284C252.181 33.8028 256.393 36.681 259.93 40.3631C263.466 44.0447 266.223 48.4011 268.199 53.4312C270.175 58.4616 271.163 63.9326 271.163 69.8446V74.9786H206.414C206.934 78.1938 207.974 81.1756 209.534 83.9237C211.095 86.6721 213.045 89.0577 215.385 91.0802C217.726 93.1029 220.378 94.6847 223.342 95.8252C226.307 96.966 229.453 97.5368 232.782 97.5368C242.247 97.5368 249.893 93.6472 255.717 85.8683L267.107 94.2692C263.154 99.5588 258.266 103.708 252.441 106.715C246.616 109.723 240.063 111.227 232.782 111.227C226.853 111.227 221.315 110.189 216.166 108.115C211.017 106.041 206.544 103.137 202.748 99.4029C198.951 95.6689 195.961 91.2871 193.777 86.257C191.592 81.2269 190.5 75.7556 190.5 69.8439C190.499 64.2434 191.54 58.9538 193.62 53.9754ZM215.541 47.83C211.12 51.512 208.182 56.4126 206.726 62.5319H255.249C253.897 56.4126 251.011 51.512 246.59 47.83C242.169 44.1483 236.994 42.3073 231.066 42.3073C225.137 42.3073 219.962 44.1483 215.541 47.83Z" fill="#F0F0EB"/>
<path d="M300.65 49.624C297.321 53.254 295.657 58.1804 295.657 64.4036V109.521H279.898V30.1774H295.501V39.9787C297.477 36.7635 300.051 34.2223 303.224 32.3554C306.396 30.4883 310.167 29.5547 314.536 29.5547H319.996V44.1788H313.443C308.243 44.1791 303.978 45.9939 300.65 49.624Z" fill="#F0F0EB"/>
</svg>
