<svg width="320" height="105" viewBox="0 0 320 105" fill="none" xmlns="http://www.w3.org/2000/svg">
<path d="M108.75 31.5625C108.751 31.4278 108.725 31.2943 108.674 31.1697C108.623 31.0451 108.548 30.9317 108.453 30.8363L95.2528 17.6363C92.8825 15.0852 90.0056 13.0571 86.8064 11.6819C83.6072 10.3067 80.1561 9.61464 76.674 9.65C73.1913 9.61054 69.739 10.3008 66.5392 11.6762C63.3393 13.0517 60.463 15.0819 58.0953 17.6363L44.8953 30.8363C44.7994 30.9313 44.7232 31.0444 44.6713 31.1691C44.6193 31.2937 44.5925 31.4275 44.5925 31.5625C44.5925 31.6975 44.6193 31.8313 44.6713 31.9559C44.7232 32.0806 44.7994 32.1937 44.8953 32.2888L48.8553 36.2813C48.9508 36.3762 49.0641 36.4514 49.1887 36.5025C49.3133 36.5535 49.4468 36.5794 49.5815 36.5787C49.717 36.5855 49.8523 36.5624 49.9778 36.511C50.1033 36.4595 50.216 36.3811 50.3078 36.2813L68.8865 17.7025C69.8459 16.6287 71.028 15.7772 72.3503 15.2073C73.6727 14.6373 75.1034 14.3627 76.5428 14.4025C77.9821 14.3627 79.4129 14.6373 80.7352 15.2073C82.0575 15.7772 83.2396 16.6287 84.199 17.7025L102.778 36.2813C102.87 36.3811 102.982 36.4595 103.108 36.511C103.233 36.5624 103.369 36.5855 103.504 36.5787C103.639 36.5794 103.772 36.5535 103.897 36.5025C104.021 36.4514 104.135 36.3762 104.23 36.2813L108.223 32.2888C108.36 32.2158 108.479 32.1125 108.57 31.9866C108.662 31.8608 108.723 31.7157 108.75 31.5625ZM159.375 53.75C159.281 53.8458 159.168 53.922 159.044 53.9741C158.92 54.0262 158.786 54.0533 158.652 54.0537H139.984C136.504 54.1815 133.036 53.5813 129.802 52.2915C126.567 51.0018 123.637 49.0509 121.2 46.5637C118.71 44.1291 116.757 41.1999 115.467 37.9648C114.177 34.7297 113.578 31.2603 113.71 27.78V9.1125C113.71 8.97738 113.736 8.84347 113.787 8.71851C113.839 8.59355 113.914 8.48002 114.01 8.38447C114.105 8.28893 114.219 8.21327 114.344 8.16187C114.469 8.11046 114.603 8.08434 114.738 8.085L120.362 8.0625C120.496 8.06296 120.629 8.09004 120.754 8.14216C120.878 8.19429 120.991 8.27044 121.085 8.36625C121.186 8.45718 121.265 8.56917 121.318 8.69426C121.37 8.81935 121.395 8.95446 121.389 9.09V35.3637C121.308 36.8014 121.542 38.2394 122.074 39.5775C122.606 40.9156 123.423 42.1216 124.469 43.1112C125.459 44.1572 126.665 44.9746 128.003 45.5066C129.341 46.0385 130.779 46.2722 132.217 46.1912H158.49C158.626 46.1856 158.761 46.2099 158.886 46.2624C159.011 46.3149 159.123 46.3943 159.214 46.495C159.31 46.5897 159.386 46.7024 159.438 46.8266C159.49 46.9508 159.517 47.0841 159.518 47.2188V52.865C159.563 53.0136 159.574 53.1707 159.55 53.3243C159.526 53.4779 159.467 53.6239 159.378 53.7512L159.375 53.75ZM165.625 54C165.529 53.9053 165.453 53.7926 165.401 53.6684C165.349 53.5442 165.322 53.4109 165.322 53.2762V34.6087C165.194 31.1289 165.794 27.6608 167.084 24.4262C168.374 21.1917 170.324 18.2621 172.812 15.825C175.246 13.3345 178.175 11.3815 181.41 10.0915C184.646 8.80146 188.115 8.20314 191.595 8.335H210.263C210.398 8.33434 210.532 8.36046 210.657 8.41186C210.782 8.46327 210.895 8.53893 210.991 8.63447C211.086 8.73002 211.162 8.84355 211.213 8.96851C211.265 9.09347 211.291 9.22738 211.29 9.3625L211.313 14.9863C211.312 15.1209 211.285 15.2542 211.233 15.3784C211.181 15.5026 211.105 15.6153 211.009 15.71C210.918 15.8107 210.806 15.8901 210.681 15.9426C210.556 15.9951 210.421 16.0194 210.285 16.0138H184.012C182.574 15.9328 181.136 16.1665 179.798 16.6984C178.46 17.2304 177.254 18.0478 176.264 19.0937C175.218 20.0834 174.401 21.2894 173.869 22.6275C173.337 23.9656 173.103 25.4036 173.184 26.8412V53.115C173.19 53.2505 173.165 53.3857 173.113 53.5107C173.06 53.6358 172.981 53.7478 172.88 53.8387C172.786 53.9346 172.673 54.0107 172.549 54.0628C172.424 54.115 172.291 54.142 172.157 54.1425H166.51C166.362 54.1881 166.205 54.1992 166.051 54.1749C165.897 54.1506 165.751 54.0917 165.624 54.0025L165.625 54ZM268.438 31.5625C268.438 31.4278 268.413 31.2943 268.361 31.1697C268.31 31.0451 268.235 30.9317 268.14 30.8363L254.94 17.6363C252.57 15.0852 249.693 13.0571 246.494 11.6819C243.295 10.3067 239.844 9.61464 236.362 9.65C232.879 9.61054 229.426 10.3008 226.227 11.6762C223.027 13.0517 220.151 15.0819 217.783 17.6363L204.583 30.8363C204.487 30.9313 204.411 31.0444 204.359 31.1691C204.307 31.2937 204.28 31.4275 204.28 31.5625C204.28 31.6975 204.307 31.8313 204.359 31.9559C204.411 32.0806 204.487 32.1937 204.583 32.2888L208.543 36.2813C208.638 36.3762 208.752 36.4514 208.876 36.5025C209.001 36.5535 209.134 36.5794 209.269 36.5787C209.404 36.5855 209.54 36.5624 209.665 36.511C209.791 36.4595 209.903 36.3811 209.995 36.2813L228.574 17.7025C229.533 16.6287 230.716 15.7772 232.038 15.2073C233.36 14.6373 234.791 14.3627 236.23 14.4025C237.67 14.3627 239.1 14.6373 240.423 15.2073C241.745 15.7772 242.927 16.6287 243.887 17.7025L262.465 36.2813C262.557 36.3811 262.67 36.4595 262.795 36.511C262.921 36.5624 263.056 36.5855 263.192 36.5787C263.326 36.5794 263.46 36.5535 263.584 36.5025C263.709 36.4514 263.822 36.3762 263.918 36.2813L267.91 32.2888C268.048 32.2158 268.167 32.1125 268.258 31.9866C268.349 31.8608 268.411 31.7157 268.438 31.5625ZM72.8128 101.625C72.7181 101.721 72.6054 101.797 72.4812 101.849C72.357 101.901 72.2237 101.928 72.089 101.929H53.4215C49.9417 102.057 46.4735 101.456 43.239 100.167C40.0045 98.8768 37.0749 96.9259 34.6378 94.4388C32.1473 92.0041 30.1942 89.0749 28.9042 85.8398C27.6142 82.6047 27.0159 79.1353 27.1478 75.655V56.9875C27.1471 56.8524 27.1732 56.7185 27.2246 56.5935C27.276 56.4685 27.3517 56.355 27.4472 56.2595C27.5428 56.1639 27.6563 56.0883 27.7813 56.0369C27.9062 55.9855 28.0402 55.9593 28.1753 55.96L33.799 55.9375C33.9337 55.938 34.067 55.965 34.1912 56.0172C34.3154 56.0693 34.4281 56.1454 34.5228 56.2412C34.6234 56.3322 34.7028 56.4442 34.7553 56.5693C34.8078 56.6943 34.8321 56.8295 34.8265 56.965V83.2388C34.7456 84.6764 34.9792 86.1144 35.5112 87.4525C36.0431 88.7906 36.8606 89.9966 37.9065 90.9863C38.8962 92.0322 40.1022 92.8496 41.4402 93.3816C42.7783 93.9135 44.2163 94.1472 45.654 94.0663H71.9278C72.0633 94.0606 72.1984 94.0849 72.3235 94.1374C72.4486 94.1899 72.5606 94.2693 72.6515 94.37C72.7473 94.4647 72.8235 94.5774 72.8756 94.7016C72.9277 94.8258 72.9548 94.9591 72.9553 95.0938V100.74C73.0008 100.889 73.0119 101.046 72.9877 101.199C72.9634 101.353 72.9044 101.499 72.8153 101.626L72.8128 101.625Z" fill="#F0F0EB"/>
<path d="M119.376 79.375C119.376 79.2403 119.35 79.1068 119.299 78.9822C119.248 78.8576 119.173 78.7442 119.078 78.6487L105.878 65.4488C103.508 62.8977 100.631 60.8696 97.4317 59.4944C94.2325 58.1192 90.7813 57.4271 87.2992 57.4625C83.8166 57.423 80.3642 58.1133 77.1644 59.4887C73.9646 60.8642 71.0882 62.8944 68.7205 65.4488L55.5205 78.6487C55.4246 78.7438 55.3484 78.8569 55.2965 78.9816C55.2445 79.1062 55.2178 79.24 55.2178 79.375C55.2178 79.51 55.2445 79.6438 55.2965 79.7684C55.3484 79.8931 55.4246 80.0062 55.5205 80.1013L59.4805 84.0938C59.576 84.1887 59.6893 84.2639 59.8139 84.315C59.9386 84.366 60.0721 84.3919 60.2068 84.3913C60.3422 84.398 60.4775 84.3749 60.603 84.3235C60.7286 84.272 60.8412 84.1936 60.933 84.0938L79.5118 65.515C80.4712 64.4412 81.6532 63.5897 82.9756 63.0198C84.2979 62.4498 85.7286 62.1752 87.168 62.215C88.6074 62.1752 90.0381 62.4498 91.3604 63.0198C92.6828 63.5897 93.8649 64.4412 94.8243 65.515L113.403 84.0938C113.495 84.1936 113.607 84.272 113.733 84.3235C113.858 84.3749 113.994 84.398 114.129 84.3913C114.264 84.3919 114.397 84.366 114.522 84.315C114.647 84.2639 114.76 84.1887 114.856 84.0938L118.848 80.1013C118.985 80.0283 119.104 79.925 119.196 79.7991C119.287 79.6733 119.349 79.5282 119.376 79.375ZM187.501 80C187.501 80.1347 187.475 80.2682 187.424 80.3928C187.373 80.5174 187.298 80.6308 187.203 80.7263L174.003 93.9262C171.633 96.4773 168.756 98.5054 165.557 99.8806C162.357 101.256 158.906 101.948 155.424 101.912C151.942 101.952 148.489 101.262 145.289 99.8863C142.09 98.5108 139.213 96.4806 136.846 93.9262L123.646 80.7263C123.55 80.6312 123.473 80.5181 123.421 80.3934C123.37 80.2688 123.343 80.135 123.343 80C123.343 79.865 123.37 79.7312 123.421 79.6066C123.473 79.4819 123.55 79.3688 123.646 79.2737L127.606 75.2812C127.701 75.1863 127.814 75.1111 127.939 75.06C128.064 75.009 128.197 74.9831 128.332 74.9837C128.467 74.977 128.603 75.0001 128.728 75.0515C128.854 75.103 128.966 75.1814 129.058 75.2812L147.637 93.86C148.596 94.9337 149.778 95.7853 151.101 96.3552C152.423 96.9252 153.854 97.1998 155.293 97.16C156.732 97.1998 158.163 96.9252 159.485 96.3552C160.808 95.7853 161.99 94.9337 162.949 93.86L181.528 75.2812C181.62 75.1814 181.732 75.103 181.858 75.0515C181.983 75.0001 182.119 74.977 182.254 74.9837C182.389 74.9831 182.522 75.009 182.647 75.06C182.772 75.1111 182.885 75.1863 182.981 75.2812L186.973 79.2737C187.11 79.3467 187.229 79.45 187.321 79.5759C187.412 79.7017 187.474 79.8468 187.501 80ZM255.938 79.375C255.939 79.2403 255.913 79.1068 255.862 78.9822C255.811 78.8576 255.735 78.7442 255.64 78.6487L242.441 65.4488C240.07 62.8977 237.193 60.8696 233.994 59.4944C230.795 58.1192 227.344 57.4271 223.862 57.4625C220.379 57.423 216.927 58.1133 213.727 59.4887C210.527 60.8642 207.651 62.8944 205.283 65.4488L192.083 78.6487C191.987 78.7438 191.911 78.8569 191.859 78.9816C191.807 79.1062 191.78 79.24 191.78 79.375C191.78 79.51 191.807 79.6438 191.859 79.7684C191.911 79.8931 191.987 80.0062 192.083 80.1013L196.043 84.0938C196.139 84.1887 196.252 84.2639 196.376 84.315C196.501 84.366 196.635 84.3919 196.769 84.3913C196.905 84.398 197.04 84.3749 197.166 84.3235C197.291 84.272 197.404 84.1936 197.496 84.0938L216.074 65.515C217.034 64.4412 218.216 63.5897 219.538 63.0198C220.86 62.4498 222.291 62.1752 223.73 62.215C225.17 62.1752 226.601 62.4498 227.923 63.0198C229.245 63.5897 230.427 64.4412 231.387 65.515L249.966 84.0938C250.057 84.1936 250.17 84.272 250.295 84.3235C250.421 84.3749 250.556 84.398 250.692 84.3913C250.826 84.3919 250.96 84.366 251.085 84.315C251.209 84.2639 251.323 84.1887 251.418 84.0938L255.411 80.1013C255.548 80.0283 255.667 79.925 255.758 79.7991C255.85 79.6733 255.911 79.5282 255.938 79.375ZM307.501 101.625C307.406 101.721 307.293 101.797 307.169 101.849C307.045 101.901 306.911 101.928 306.777 101.929H288.109C284.629 102.057 281.161 101.456 277.927 100.167C274.692 98.8768 271.763 96.9259 269.326 94.4388C266.835 92.0041 264.882 89.0749 263.592 85.8398C262.302 82.6047 261.704 79.1353 261.836 75.655V56.9875C261.835 56.8524 261.861 56.7185 261.912 56.5935C261.964 56.4685 262.039 56.355 262.135 56.2595C262.231 56.1639 262.344 56.0883 262.469 56.0369C262.594 55.9855 262.728 55.9593 262.863 55.96L268.487 55.9375C268.621 55.938 268.755 55.965 268.879 56.0172C269.003 56.0693 269.116 56.1454 269.211 56.2413C269.311 56.3322 269.391 56.4442 269.443 56.5693C269.496 56.6943 269.52 56.8295 269.514 56.965V83.2388C269.433 84.6764 269.667 86.1144 270.199 87.4525C270.731 88.7906 271.548 89.9966 272.594 90.9863C273.584 92.0322 274.79 92.8496 276.128 93.3816C277.466 93.9135 278.904 94.1472 280.342 94.0662H306.616C306.751 94.0606 306.886 94.0849 307.011 94.1374C307.136 94.1899 307.248 94.2693 307.339 94.37C307.435 94.4647 307.511 94.5774 307.563 94.7016C307.615 94.8258 307.643 94.959 307.643 95.0937V100.74C307.689 100.889 307.7 101.046 307.675 101.199C307.651 101.353 307.592 101.499 307.503 101.626L307.501 101.625Z" fill="#F0F0EB"/>
<path d="M2.5 1.25C100 36.25 222.5 36.25 317.5 1.25V3.75C220 38.75 97.5 38.75 2.5 3.75V1.25ZM2.5 1.25V68.75H317.5V71.25H2.5V1.25Z" fill="#F0F0EB"/>
</svg>
