<svg width="320" height="76" viewBox="0 0 320 76" fill="none" xmlns="http://www.w3.org/2000/svg">
<path d="M185.645 67.0087C185.645 67.6167 185.837 67.9686 186.189 67.9686C186.477 67.9366 186.733 67.8086 186.957 67.6487L286.691 2.91912C288.377 1.74122 290.395 1.13555 292.451 1.19129H314.369C317.728 1.19129 320 3.43107 320 6.79073V48.6425C320 53.698 318.88 56.6418 314.401 59.3295L287.811 75.3279C287.546 75.5119 287.237 75.6223 286.915 75.6479C286.595 75.6479 286.275 75.3919 286.275 74.464V25.6368C286.275 25.0609 286.115 24.6769 285.731 24.6769C285.45 24.7093 285.184 24.8202 284.964 24.9969L212.075 72.3522C210.411 73.4721 208.459 74.08 206.475 74.048H158.16C154.769 74.048 152.529 71.8082 152.529 68.4166V8.1026C152.529 7.65465 152.337 7.23869 151.953 7.23869C151.673 7.27425 151.407 7.38479 151.185 7.55866L103.094 36.4198C102.614 36.7397 102.486 36.9637 102.486 37.1877C102.486 37.3797 102.582 37.5717 102.902 37.9236L137.266 72.2562C137.714 72.7041 138.034 73.0561 138.034 73.4401C138.034 73.76 137.522 74.016 136.914 74.016H105.877C103.446 74.016 101.558 73.664 100.246 72.3522L79.4161 51.5543C79.3371 51.4598 79.2395 51.3827 79.1294 51.3276C79.0193 51.2726 78.899 51.2408 78.7761 51.2343C78.5503 51.2447 78.3305 51.3107 78.1362 51.4263L43.3237 72.3522C41.2119 73.632 39.772 73.984 37.6922 73.984H5.66343C2.23978 74.016 0 71.7442 0 68.3846V27.3327C0 22.2452 1.11989 19.3335 5.63144 16.6457L32.3808 0.583353C32.5906 0.445921 32.834 0.36847 33.0847 0.359375C33.5007 0.359375 33.7246 0.775333 33.7246 1.70324V56.6737C33.7246 57.2497 33.8526 57.5057 34.2686 57.5057C34.5565 57.4737 34.8125 57.3457 35.0685 57.1857L125.427 2.82313C127.155 1.63925 129.267 1.0633 131.379 1.1593H180.014C183.374 1.1593 185.645 3.39907 185.645 6.75874L185.613 67.0087H185.645Z" fill="#F0F0EB"/>
</svg>
