<svg width="320" height="102" viewBox="0 0 320 102" fill="none" xmlns="http://www.w3.org/2000/svg">
<path fill-rule="evenodd" clip-rule="evenodd" d="M286.87 50.9918L286.869 50.9921L286.868 50.9927C286.104 51.4029 285.451 51.6175 284.675 51.6175C283.302 51.6175 282.902 50.6848 282.902 49.6406C282.902 47.2288 285.152 44.2016 287.489 43.4725C287.472 42.3569 286.413 41.55 284.728 41.55C282.397 41.55 279.236 43.3624 272.673 51.7181C272.783 51.5177 272.889 51.3233 272.993 51.1343C274.733 47.9595 275.624 46.3347 275.624 44.4056C275.624 42.8048 274.543 41.6231 272.285 41.6231C268.335 41.6231 265.732 44.9219 260.843 51.1202C260.518 51.5323 260.183 51.9573 259.836 52.395C256.339 56.815 251.733 61.4843 247.242 61.4843C245.667 61.4843 244.875 60.6796 244.875 59.33C244.87 57.6619 245.682 55.6514 246.285 54.5537C252.078 53.9372 260.358 49.2654 260.358 44.2256C260.358 42.0974 258.923 41.2325 256.46 41.2325C253.502 41.2325 249.805 42.6396 245.916 46.2568C245.612 46.5392 245.293 46.8371 244.959 47.1475C241.133 50.7123 235.531 55.9298 232.622 58.2587C234.129 56.0187 234.533 53.8484 234.533 51.2762C234.533 50.0097 234.465 48.8931 234.398 47.7837C234.331 46.6882 234.265 45.5997 234.265 44.3806C234.265 44.0881 234.29 43.5837 234.333 43.3212C235.579 43.0814 236.639 42.1987 236.639 40.8612C236.639 39.8631 235.997 39.0943 234.743 39.0943C233.206 39.0943 231.87 40.2358 231.233 42.7975C229.353 44.8633 226.315 48.0106 223.599 50.7812C217.086 57.3959 212.628 61.3812 210.191 61.3812C209.552 61.3812 209.158 61.0755 209.158 60.3593C209.158 59.0275 211.067 55.6939 212.725 53.0675C212.725 53.0675 214.401 50.3513 219.56 42.2306L213.449 42.5843C212.983 43.3467 211.319 45.6304 210.984 46.0525C206.698 51.6618 198.787 61.4806 192.288 61.4806C190.287 61.4806 189.646 60.4704 189.646 59.0818C189.646 57.5888 190.351 55.9393 190.996 54.58C199.122 53.4555 205.093 48.0632 205.093 44.2256C205.093 42.2051 203.872 41.2325 201.241 41.2325C193.893 41.2325 188.032 48.4951 185.656 53.0618C184.09 52.6227 182.779 51.7004 182.136 50.1887C184.395 46.4208 185.678 43.2051 185.678 42.0612C185.678 41.4552 184.96 40.9937 184.006 40.9937C182.784 40.9937 182.039 41.6038 181.583 42.2681C180.644 43.6364 180.011 46.2139 180.099 49.0956C178.623 53.3431 172.408 61.345 167.97 61.345C167.123 61.345 166.806 60.9435 166.806 60.2881C166.806 58.953 168.38 55.913 171.27 51.2418C171.346 51.1172 171.553 50.7788 171.847 50.2961C172.987 48.4292 175.444 44.403 176.806 42.2331L170.73 42.5618C170.463 42.9711 170.204 43.3705 169.949 43.7631C168.828 45.4877 167.791 47.0843 166.547 48.835C160.132 57.8557 155.77 61.3556 153.433 61.3556C152.762 61.3556 152.42 61.0427 152.42 60.4562C152.42 59.8802 152.747 59.128 153.367 57.9768C155.102 54.7475 158.98 48.9732 162.224 44.1439C162.663 43.4899 163.091 42.8532 163.5 42.2425L157.35 42.55C156.637 43.6031 154.613 46.411 153.835 47.3937C145.216 58.1976 141.078 61.305 138.972 61.305C138.217 61.305 137.958 60.8666 137.958 60.2331C137.958 58.4735 139.879 55.1674 143.704 48.7487C144.4 47.582 154.688 30.8568 159.809 22.5663C160.036 22.1984 160.253 21.8472 160.459 21.5147V26.6526L320 0.304688L286.87 50.9912L286.87 50.9918ZM287.364 52.1759L287.365 52.1762C286.205 52.77 284.998 53.1225 283.456 53.1225C280.512 53.1225 279.038 51.7205 279.038 49.4425C279.038 48.1511 279.621 46.5454 280.607 45.1512C276.726 48.4573 268.936 58.5897 266.075 63.2075L259.941 63.4387C260.177 63.0423 260.774 62.1261 261.59 60.8727C263.623 57.754 267.015 52.5479 269.59 48.0681L269.742 47.8026C270.77 46.0141 271.318 45.06 271.318 44.2556C271.318 43.8068 271.06 43.5762 270.616 43.5762C268.676 43.5762 265.397 47.655 261.152 53.0893C258.04 57.0719 252.306 63.9475 244.836 63.9475C240.95 63.9475 239.161 61.8873 239.161 59.1693C239.161 56.7163 240.15 54.4799 241.318 52.4425C240.089 53.5314 238.931 54.5754 237.801 55.5938C237.19 56.1453 236.586 56.6892 235.985 57.2287C232.539 60.3072 228.187 64.0693 222.065 64.0693C218.848 64.0693 217.015 62.7043 217.015 61.1537C217.015 60.3274 217.608 59.6743 218.393 59.6743C219.323 59.6743 219.679 60.3 220.061 60.972C220.504 61.7514 220.982 62.5931 222.433 62.5931C225.488 62.5931 227.98 59.7785 229.618 50.71C229.836 49.5053 230.32 47.0767 230.647 45.5675C225.894 50.6081 222.569 53.9597 221.118 55.3612C216.985 59.3503 212.214 63.9437 207.72 63.9437C205.133 63.9437 203.721 62.6598 203.721 60.4806C203.721 59.0248 204.314 57.2251 206.068 54.2406C202.507 58.0215 196.778 63.9187 189.879 63.9187C185.798 63.9187 183.908 61.919 183.908 58.9037C183.908 57.5394 184.325 55.9085 184.995 54.4162C183.432 53.9342 182.072 53.0864 181.223 51.6606C179.386 54.475 177.103 57.44 174.081 60.12C170.81 63.0186 167.876 63.9075 165.575 63.9075C163.016 63.9075 161.49 62.7089 161.49 60.4818C161.49 58.8543 162.288 57.2954 163.071 55.7656L163.148 55.615C159.842 59.7434 155.512 63.9356 150.798 63.9356C148.731 63.9356 147.04 62.9483 147.04 60.6199C147.04 59.0118 147.918 57.3719 149.322 55.055C149.144 55.2505 148.958 55.4558 148.765 55.6688C145.835 58.9056 141.287 63.93 136.271 63.93C133.796 63.93 132.518 62.6593 132.518 60.5643C132.518 58.8144 133.321 57.0821 134 55.7106C133.379 56.4601 132.691 57.2333 132.207 57.7767L132.089 57.9087C128.283 62.1724 124.982 63.9493 121.688 63.9493C119.146 63.9493 117.574 62.5597 117.574 60.2087C117.574 59.0591 118.057 57.5479 118.571 56.34C115.066 60.0803 110.88 64.0043 106.494 64.0043C103.994 64.0043 102.97 62.6011 102.97 60.9168C102.97 59.7656 103.438 58.3742 104.361 56.6025L102.97 58.0437C99.8984 61.1886 96.0385 63.98 92.4715 63.98C90.1456 63.98 88.6996 62.7454 88.6996 60.6812C88.6996 59.0358 89.8423 56.3473 92.6858 52.4725L90.8008 54.2575C81.8805 62.7136 72.7672 67.8549 62.9233 67.8549C55.7083 67.8549 53.4071 64.6776 53.4071 60.9218C53.4071 60.1125 53.5865 59.22 53.5865 59.22L52.3365 60.8787C48.7841 65.3612 45.9714 67.8462 42.4902 67.8462C39.5989 67.8462 37.074 66.4294 37.074 63.8993C37.074 62.3925 37.9222 60.7909 39.1277 58.8149C41.5751 54.7991 48.3063 44.8481 53.3858 37.6112C50.1356 39.613 45.6345 41.315 39.8833 41.315C31.7574 41.315 27.5797 38.1003 27.3931 33.3343C27.3887 33.2245 27.3865 33.1138 27.3865 33.0024V35.466C27.3865 40.006 30.9041 43.2116 37.8995 43.7131L0 101.696L160 75.2717L253.727 101.696L283.871 55.5799C285.217 55.5216 286.312 55.1846 287.365 54.645V52.1757C287.365 52.1758 287.365 52.1758 287.364 52.1759ZM47.0449 24.0336C48.2631 24.0873 49.4384 24.1908 50.5684 24.3307L50.57 24.3282C54.8008 24.8529 58.3713 25.9139 61.0327 26.9293C60.9744 27.0136 57.0433 32.4368 57.0433 32.4368C55.0742 34.6505 49.769 39.4763 40.563 39.639L49.0607 26.638C47.8115 26.5262 46.5137 26.4614 45.1672 26.4614C36.6552 26.4614 31.1868 29.6249 30.3426 34.2573C30.2689 33.8716 30.2324 33.469 30.2341 33.0494C30.2408 30.4552 31.5917 28.235 34.0513 26.642C34.1104 26.6038 34.17 26.5659 34.2304 26.5284C36.8037 24.9287 40.5336 23.9931 45.1671 23.9931C45.8034 23.9931 46.4296 24.0071 47.0449 24.0336ZM51.5815 22.7807L66.2727 0.304688L152.455 24.4136C149.49 29.2446 143.06 39.7215 140.591 43.7606C139.865 42.2351 138.347 41.3425 136.002 41.3425C130.84 41.3425 126.056 44.7851 122.114 49.7375C121.98 49.9054 121.829 50.0972 121.661 50.3093C119.14 53.5016 112.991 61.2875 109.459 61.2875C108.841 61.2875 108.532 60.9794 108.532 60.3556C108.532 60.085 108.587 59.7562 108.703 59.365C109.079 58.0874 110.502 55.6595 112.197 52.9456C112.197 52.9456 113.915 50.2444 119.16 42.225L112.684 42.625C112.684 42.625 107.214 50.8838 105.702 52.8443C102.391 57.121 97.7387 61.2712 95.2702 61.2712C94.5419 61.2712 94.3008 60.8701 94.3008 60.4812C94.3008 59.9028 94.5622 59.1498 95.549 57.4493C97.3078 54.4405 105.443 42.1943 105.443 42.1943L99.0652 42.5881C98.3377 43.6161 96.9135 45.5725 96.1252 46.5431C92.7121 50.7071 84.9095 58.071 79.5465 61.1487C82.3374 58.0435 84.7127 54.0593 84.7127 49.7081C84.7127 44.8387 81.8127 43.2864 79.9751 42.3027C79.8582 42.2402 79.7456 42.1799 79.6383 42.1212C82.887 41.4123 86.8954 40.0562 89.8127 37.1462C91.9709 34.9945 93.8015 31.4194 93.8015 28.3093C93.8015 24.876 91.5869 21.515 85.6721 21.515C80.1956 21.515 75.9892 24.1104 71.4783 29.8137C70.1813 29.1194 68.8408 28.4452 67.5146 27.8206C68.6508 26.2369 69.6617 24.8509 70.3638 23.8883C70.5312 23.6587 70.681 23.4533 70.8108 23.275L63.4983 23.5868C63.0285 24.1823 62.5847 24.7787 62.0508 25.5062C59.1487 24.4208 55.6697 23.3688 51.5815 22.7807ZM87.0958 27.7181C87.0958 25.5972 86.2566 23.8918 83.5208 23.8918C79.3803 23.8918 75.6718 27.8623 73.2908 30.8987C75.3623 32.1342 76.8036 33.2038 77.8365 34.0075L76.8527 35.2762C75.5395 34.2417 73.9941 33.193 72.2733 32.2006C70.6407 34.3712 67.6945 38.7799 64.7169 43.2357C62.9591 45.866 61.1905 48.5126 59.6746 50.725C62.3642 48.954 65.8242 48.3762 68.0577 48.3762V50.0262C60.2254 50.1518 55.3646 55.3994 55.3646 60.8281C55.3646 63.7526 56.9476 65.7793 61.1765 65.7793C70.9993 65.7793 77.7502 55.2994 77.7502 48.4206C77.7502 45.3048 76.6238 42.5281 71.6658 42.5281H69.3165C68.5153 42.5281 67.8756 42.5834 67.5021 42.6612L68.9602 40.4968C73.2029 40.4968 76.5474 40.4102 78.9502 39.285C84.2979 36.7622 87.0958 30.8241 87.0958 27.7181ZM70.4658 31.1537C69.1696 30.4708 67.8566 29.8344 66.5377 29.2268C65.0665 31.2756 46.1385 58.9745 44.8333 61.1781C43.7348 63.0381 43.4858 63.8244 43.4858 64.3437C43.4858 64.7771 43.7306 65.145 44.339 65.145C45.0689 65.145 45.8599 64.6631 46.969 63.7031C49.819 61.2451 53.4498 56.1097 58.4596 48.8275C60.2797 46.1818 62.0931 43.4568 63.8119 40.8739C66.3231 37.1003 68.6325 33.6301 70.4658 31.1537ZM219.668 33.8093C219.668 31.963 221.112 29.7806 223.465 29.7806C224.816 29.7806 225.973 30.6553 225.973 32.3631C225.973 34.3487 224.35 36.2987 222.272 36.2987C220.547 36.2987 219.668 35.2692 219.668 33.8093ZM202.36 43.8281C202.36 43.2083 202.014 42.795 201.335 42.795C198.442 42.795 194.64 47.9111 191.787 53.1081C196.598 52.3328 202.36 47.6543 202.36 43.8281ZM257.611 43.8318C257.611 43.2064 257.332 42.795 256.64 42.795C254.147 42.795 250.668 46.5649 247.08 53.08C251.891 52.2933 257.611 47.3697 257.611 43.8318ZM139.258 45.095C139.258 43.8789 138.448 43.1818 137.083 43.1818C134.689 43.1818 132.301 44.8155 129.034 48.9075C126.22 52.425 123.346 57.6729 123.346 59.9518C123.346 60.5481 123.507 61.2231 124.728 61.2231C125.954 61.2231 127.942 60.3509 130.816 57.155C133.53 54.1729 136.618 50.2126 138.945 46.2543C139.149 45.9084 139.258 45.4417 139.258 45.095Z" fill="#111110"/>
</svg>
