<svg width="109" height="144" viewBox="0 0 109 144" fill="none" xmlns="http://www.w3.org/2000/svg">
<path d="M0 4C0 1.79086 1.79086 0 4 0H58.5887C58.8522 0 59.105 0.103982 59.2923 0.289349L108.704 49.2065C108.893 49.3943 109 49.6502 109 49.9172V140C109 142.209 107.209 144 105 144H4C1.79086 144 0 142.209 0 140V4Z" fill="#D7D7D0"/>
<path d="M63.0275 49.9859L109 49.8247L59.1672 0L59.0135 45.9725C59.006 48.1924 60.8076 49.9937 63.0275 49.9859Z" fill="#CBCBC5"/>
<path fill-rule="evenodd" clip-rule="evenodd" d="M62.469 88.696C58.9448 88.696 56.0983 91.556 56.0983 95.0667C56.0983 98.5754 58.9603 101.437 62.469 101.437C65.9932 101.437 68.8397 98.5774 68.8397 95.0667C68.8397 91.5425 65.9797 88.696 62.469 88.696ZM53.4609 95.0667C53.4609 90.1033 57.4843 86.0586 62.469 86.0586C67.4324 86.0586 71.4771 90.082 71.4771 95.0667C71.4771 100.03 67.4537 104.075 62.469 104.075C57.5037 104.075 53.4609 100.032 53.4609 95.0667Z" fill="#111110"/>
<path fill-rule="evenodd" clip-rule="evenodd" d="M47.1077 104.091C43.5835 104.091 40.737 106.952 40.737 110.462C40.737 113.988 43.5815 116.833 47.1077 116.833C50.6319 116.833 53.4784 113.973 53.4784 110.462V104.091H47.1077ZM38.0996 110.462C38.0996 105.499 42.123 101.454 47.1077 101.454H56.1158V110.462C56.1158 115.426 52.0924 119.47 47.1077 119.47C42.125 119.47 38.0996 115.445 38.0996 110.462Z" fill="#111110"/>
<path fill-rule="evenodd" clip-rule="evenodd" d="M53.4609 70.6807H62.469C67.4537 70.6807 71.4771 74.7254 71.4771 79.6887C71.4771 84.6734 67.4324 88.6968 62.469 88.6968H53.4609V70.6807ZM56.0983 73.318V86.0595H62.469C65.9797 86.0595 68.8397 83.213 68.8397 79.6887C68.8397 76.1781 65.9932 73.318 62.469 73.318H56.0983Z" fill="#111110"/>
<path fill-rule="evenodd" clip-rule="evenodd" d="M38.0996 79.7053C38.0996 74.7226 42.125 70.6973 47.1077 70.6973H56.1158V88.7134H47.1077C42.123 88.7134 38.0996 84.6687 38.0996 79.7053ZM47.1077 73.3346C43.5815 73.3346 40.737 76.1792 40.737 79.7053C40.737 83.216 43.5835 86.0761 47.1077 86.0761H53.4784V73.3346H47.1077Z" fill="#111110"/>
<path fill-rule="evenodd" clip-rule="evenodd" d="M38.0996 95.0843C38.0996 90.1209 42.123 86.0762 47.1077 86.0762H56.1158V104.092H47.1077C42.123 104.092 38.0996 100.048 38.0996 95.0843ZM47.1077 88.7135C43.5835 88.7135 40.737 91.5736 40.737 95.0843C40.737 98.5949 43.5835 101.455 47.1077 101.455H53.4784V88.7135H47.1077Z" fill="#111110"/>
</svg>
