<svg width="320" height="54" viewBox="0 0 320 54" fill="none" xmlns="http://www.w3.org/2000/svg">
<g clip-path="url(#clip0_7360_9738)">
<path d="M35.1995 45.585C35.938 45.585 36.6413 45.4092 37.3094 45.0224L45.0105 40.5916C46.5578 39.7125 48.3512 39.3257 50.1446 39.5367C59.4984 40.6268 66.0391 42.385 67.9732 42.9477C68.36 43.0532 68.8171 42.9125 69.0633 42.596C69.3797 42.2092 69.7666 41.5763 70.083 40.662C70.3644 39.7829 70.3995 39.0444 70.3644 38.5169C70.3292 38.0949 70.0479 37.7081 69.6259 37.6026C66.6017 36.7235 53.2039 33.1015 35.1995 33.1015C17.1951 33.1015 3.79733 36.7235 0.773152 37.6026C0.351174 37.7081 0.0698551 38.0949 0.0346902 38.5169C-0.000474585 39.0092 0.0346902 39.7477 0.316009 40.662C0.597328 41.5763 1.01931 42.2092 1.33579 42.596C1.58194 42.9125 2.03909 43.0532 2.4259 42.9477C4.35996 42.385 10.9358 40.6268 20.2545 39.5367C22.0479 39.3257 23.8413 39.7125 25.3885 40.5916L33.0896 45.0224C33.7578 45.4092 34.4962 45.585 35.1995 45.585ZM22.3644 20.6532C22.7863 21.3916 23.4545 21.884 24.2281 22.0949C25.0017 22.3059 25.8105 22.2004 26.549 21.7785C27.2874 21.3565 27.7797 20.6883 27.9907 19.9147C28.2017 19.1411 28.0962 18.3323 27.6742 17.5938L20.7468 5.60264C20.5358 5.21582 20.0786 5.07516 19.6567 5.11033C19.094 5.14549 18.3204 5.42681 17.4061 5.95428C16.4918 6.48176 15.8589 7.00923 15.5424 7.46637C15.2962 7.81802 15.2259 8.27516 15.4369 8.66198L22.3644 20.6532ZM16.0347 29.2334C16.7731 29.6554 17.6171 29.7257 18.3556 29.5499C19.1292 29.3389 19.7973 28.8466 20.2193 28.1081C20.6413 27.3697 20.7116 26.5257 20.5358 25.7872C20.36 25.0488 19.8325 24.3455 19.094 23.9235L7.10282 16.996C6.71601 16.7851 6.25887 16.8554 5.90722 17.1015C5.45007 17.418 4.9226 18.051 4.39513 18.9653C3.86766 19.8796 3.58634 20.6532 3.55117 21.2158C3.51601 21.673 3.69183 22.0949 4.04348 22.3059L16.0347 29.2334ZM38.2589 16.3982C38.2589 17.2422 37.9072 18.0158 37.3797 18.5785C36.8171 19.1411 36.0786 19.4576 35.1995 19.4576C34.3556 19.4576 33.5819 19.1059 33.0193 18.5785C32.4567 18.0158 32.1402 17.2774 32.1402 16.3982V2.57846C32.1402 2.12132 32.4215 1.76967 32.8435 1.59384C33.3358 1.34769 34.1446 1.20703 35.1995 1.20703C36.2545 1.20703 37.0633 1.34769 37.5556 1.59384C37.9424 1.80483 38.2589 2.12132 38.2589 2.57846V16.3982ZM48.0347 20.6532C47.6127 21.3916 46.9446 21.884 46.171 22.0949C45.3973 22.3059 44.5885 22.2004 43.8501 21.7785C43.1116 21.3565 42.6193 20.6883 42.4083 19.9147C42.1973 19.1411 42.3028 18.3323 42.7248 17.5938L49.6523 5.60264C49.8633 5.21582 50.3204 5.07516 50.7424 5.11033C51.305 5.14549 52.0786 5.42681 52.9929 5.95428C53.9072 6.48176 54.5402 7.00923 54.8567 7.46637C55.1028 7.81802 55.1732 8.27516 54.9622 8.66198L48.0347 20.6532ZM54.3644 29.2334C53.6259 29.6554 52.7819 29.7257 52.0435 29.5499C51.2699 29.3389 50.6017 28.8466 50.1797 28.1081C49.7578 27.3697 49.6874 26.5257 49.8633 25.7872C50.0743 25.0136 50.5666 24.3455 51.305 23.9235L63.2962 16.996C63.683 16.7851 64.1402 16.8554 64.4918 17.1015C64.949 17.418 65.4764 18.051 66.0039 18.9653C66.5314 19.8796 66.8127 20.6532 66.8479 21.2158C66.883 21.673 66.7072 22.0949 66.3556 22.3059L54.3644 29.2334ZM130.848 19.7037H136.615C136.826 19.7037 137.002 19.8444 137.107 20.0202L142.839 34.7191L148.395 20.0202C148.465 19.8092 148.676 19.7037 148.887 19.7037H154.549C154.936 19.7037 155.182 20.0905 155.006 20.407L140.94 52.6883C140.87 52.8642 140.659 53.0048 140.483 53.0048H135.49C135.138 53.0048 134.857 52.618 135.032 52.3015L139.85 41.0136L130.426 20.407C130.215 20.0905 130.461 19.7037 130.848 19.7037ZM215.982 22.9741V20.2312C215.982 19.9499 216.228 19.7037 216.509 19.7037H221.608C221.89 19.7037 222.136 19.9499 222.136 20.2312V42.1389C222.136 42.4202 221.89 42.6664 221.608 42.6664H216.509C216.228 42.6664 215.982 42.4202 215.982 42.1389V39.2554C214.892 40.9433 212.501 43.1587 208.597 43.1587C201.142 43.1587 197.274 37.462 197.274 31.0971C197.274 22.7982 203.041 19.2466 208.421 19.2466C211.973 19.2114 214.435 20.8993 215.982 22.9741ZM203.428 31.1323C203.428 35.0708 205.854 38.0949 209.758 38.0949C213.661 38.0949 216.158 35.4576 216.158 31.4136C216.158 27.3697 213.731 24.2752 209.582 24.2752C205.679 24.2752 203.428 27.2993 203.428 31.1323ZM226.742 42.1389V20.2312C226.742 19.9499 226.989 19.7037 227.27 19.7037H232.369C232.65 19.7037 232.896 19.9499 232.896 20.2312V23.2202C234.092 21.1455 236.342 19.2466 240.175 19.2466C244.114 19.2466 248.509 21.1807 248.509 30.0774V42.1389C248.509 42.4202 248.263 42.6664 247.982 42.6664H242.883C242.602 42.6664 242.356 42.4202 242.356 42.1389V30.1829C242.356 28.0378 241.828 24.3455 238.03 24.3455C234.232 24.3455 232.896 27.6861 232.896 30.7807V42.1389C232.896 42.4202 232.65 42.6664 232.369 42.6664H227.27C226.953 42.6312 226.742 42.4202 226.742 42.1389ZM252.87 42.1389V20.2312C252.87 19.9499 253.116 19.7037 253.397 19.7037H258.496C258.778 19.7037 259.024 19.9499 259.024 20.2312V23.2202C260.219 21.1455 262.47 19.2466 266.303 19.2466C270.241 19.2466 274.637 21.1807 274.637 30.0774V42.1389C274.637 42.4202 274.391 42.6664 274.109 42.6664H269.01C268.729 42.6664 268.483 42.4202 268.483 42.1389V30.1829C268.483 28.0378 267.956 24.3455 264.158 24.3455C260.36 24.3455 259.024 27.6861 259.024 30.7807V42.1389C259.024 42.4202 258.778 42.6664 258.496 42.6664H253.397C253.116 42.6312 252.87 42.4202 252.87 42.1389ZM306.426 19.7037H311.384C311.665 19.7037 311.912 19.9499 311.912 20.2312V24.7675C312.896 20.2664 316.764 18.7191 319.578 19.3873C319.824 19.4224 319.964 19.6334 319.964 19.8796V24.873C319.964 25.1894 319.683 25.4356 319.331 25.3653C314.127 24.3455 312.017 27.1587 312.017 31.0971V42.1389C312.017 42.4202 311.771 42.6664 311.49 42.6664H306.391C306.109 42.6664 305.863 42.4202 305.863 42.1389V20.2312C305.898 19.9499 306.145 19.7037 306.426 19.7037ZM97.0545 24.6971C95.472 24.1697 94.6281 23.8532 93.3622 23.4312C92.0611 22.9741 89.8457 21.7081 89.8457 19.6686C89.8457 17.629 91.2523 16.3279 94.1006 16.3279C96.7028 16.3279 98.1446 17.5938 99.094 19.6334C99.2347 19.9147 99.5512 20.0202 99.8325 19.8796L104.017 17.4532C104.228 17.3125 104.334 17.0312 104.228 16.7851C102.962 14.007 100.008 10.6664 94.1709 10.6664C87.6655 10.6664 83.5863 14.5345 83.5863 19.6334C83.5863 24.6971 86.927 27.3345 91.4633 28.8818C93.116 29.4444 93.7841 29.6905 95.1907 30.1477C97.8633 31.062 99.094 32.2576 99.094 33.9103C99.094 35.5631 98.0391 37.5323 93.8896 37.5323C90.0918 37.5323 88.7556 35.5279 87.9819 33.629C87.8764 33.3477 87.5248 33.207 87.2435 33.3829L82.8479 35.9147C82.6369 36.0554 82.5314 36.3015 82.6369 36.5477C84.3248 40.6971 88.9314 43.1587 94.1006 43.1587C100.184 43.1587 105.318 40.0642 105.318 33.8048C105.318 27.5455 98.6369 25.2246 97.0545 24.6971ZM130.637 36.6532C130.496 36.407 130.145 36.3015 129.898 36.4774C127.929 37.9191 125.608 37.9543 123.85 35.2466C122.373 32.9609 120.58 30.1477 120.58 30.1477L128.316 20.5477C128.597 20.196 128.351 19.7037 127.929 19.7037H121.881C121.705 19.7037 121.564 19.7741 121.459 19.9147L114.778 29.0927V10.6312C114.778 10.3499 114.531 10.1037 114.25 10.1037H109.151C108.87 10.1037 108.624 10.3499 108.624 10.6312V42.1389C108.624 42.4202 108.87 42.6664 109.151 42.6664H114.285C114.567 42.6664 114.813 42.4202 114.813 42.1389V31.9059C114.813 31.9059 118.224 37.2861 119.525 39.2905C121.283 42.0334 123.745 43.1587 126.417 43.1587C128.949 43.1587 130.567 42.4905 132.501 40.5916C132.676 40.4158 132.712 40.1697 132.606 39.9587L130.637 36.6532ZM167.243 29.4092C165.626 28.8114 165.063 28.6004 163.832 28.1433C162.602 27.6861 161.512 27.018 161.512 26.0334C161.512 25.0488 162.426 23.9587 164.29 23.9587C165.907 23.9587 166.892 24.5916 167.454 25.7169C167.595 25.9982 167.912 26.0686 168.158 25.9279L171.745 23.8532C171.991 23.7125 172.061 23.396 171.92 23.1499C170.936 21.4268 169.002 19.2466 164.325 19.2466C158.593 19.2466 155.639 22.5521 155.639 26.2092C155.639 29.8664 158.628 31.5894 161.371 32.6796C164.465 33.9455 164.676 34.0158 165.063 34.1565C166.013 34.5433 167.173 35.1411 167.173 36.2312C167.173 37.3213 165.907 38.3059 163.973 38.3059C162.18 38.3059 160.14 37.5675 159.296 35.4927C159.191 35.2114 158.839 35.0708 158.558 35.2466L154.936 37.3213C154.725 37.462 154.619 37.7081 154.725 37.9543C155.78 40.6971 158.909 43.1235 163.973 43.1235C169.459 43.1235 173.116 40.2048 173.116 36.0905C173.116 31.9763 170.303 30.5345 167.243 29.4092ZM187.85 24.6971C190.136 24.6971 191.824 25.4004 193.406 26.5257C193.652 26.7015 194.004 26.6312 194.145 26.3851L196.254 22.7279C196.395 22.4818 196.325 22.2004 196.079 22.0598C193.898 20.5829 191.191 19.2114 187.534 19.2114C183.912 19.2114 180.571 20.196 178.18 22.6224C175.789 25.0136 174.698 27.862 174.698 31.2378C174.698 35.3169 176.386 37.9191 178.215 39.7477C180.043 41.5763 183.349 43.1235 187.569 43.1235C191.367 43.1235 194.18 41.5411 196.114 40.2752C196.325 40.1345 196.395 39.818 196.254 39.607L194.18 35.9851C194.039 35.7389 193.687 35.6334 193.441 35.8092C192.07 36.7938 190.101 37.6378 187.885 37.6378C185.389 37.6378 180.852 36.2312 180.852 31.1675C180.852 26.1037 185.353 24.6971 187.85 24.6971ZM291.305 38.0598C289.265 38.0598 287.331 37.5675 285.925 36.4422C284.518 35.3169 283.85 34.1565 283.85 32.785H302.065C302.347 32.785 302.593 32.5389 302.593 32.2576C302.487 26.8422 300.729 24.3103 299.041 22.5872C297.283 20.829 294.294 19.2114 290.356 19.2114C286.417 19.2114 283.393 20.6532 281.318 22.6927C279.279 24.7323 277.731 27.3345 277.731 31.273C277.731 35.2114 279.314 37.8136 281.248 39.7477C283.182 41.6818 286.347 43.1235 290.883 43.1235C295.173 43.1235 298.795 41.6114 301.397 38.6224C301.608 38.3763 301.538 37.9894 301.257 37.8488L297.635 35.7389C297.459 35.6334 297.213 35.6334 297.037 35.8092C295.243 37.4971 292.958 38.0598 291.305 38.0598ZM290.32 24.1345C293.239 24.1345 295.912 25.8927 296.334 29.0576H284.061C284.87 25.6466 287.402 24.1345 290.32 24.1345Z" fill="#F0F0EB"/>
</g>
<defs>
<clipPath id="clip0_7360_9738">
<rect width="320" height="52.3956" fill="white" transform="translate(0 0.925781)"/>
</clipPath>
</defs>
</svg>
