<svg width="128" height="46" viewBox="0 0 128 46" fill="none" xmlns="http://www.w3.org/2000/svg">
<path d="M7.36427 32.4902C7.90518 33.9216 8.65407 35.1454 9.61106 36.1617C10.568 37.1782 11.7018 37.9561 13.0123 38.4954C14.323 39.0348 15.7479 39.3044 17.2874 39.3044C18.7853 39.3044 20.1895 39.0243 21.5001 38.4642C22.8108 37.904 23.9549 37.1158 24.9326 36.0995C25.9103 35.083 26.6697 33.8696 27.2106 32.4591C27.7515 31.0485 28.0219 29.4721 28.0219 27.7296V0.846191H34.5748V44.4072H28.0843V40.3622C26.6281 41.8971 24.9117 43.0795 22.9355 43.9094C20.9591 44.739 18.8269 45.1539 16.5385 45.1539C14.2085 45.1539 12.0346 44.7493 10.0166 43.9404C7.99881 43.1314 6.25123 41.9803 4.77432 40.4867C3.29741 38.9931 2.13231 37.199 1.27944 35.1038C0.426434 33.0088 0 30.6752 0 28.1029V0.846191H6.55297V27.7296C6.55297 29.4721 6.82336 31.0588 7.36427 32.4902Z" fill="#232121"/>
<path d="M45.8697 0.846191V16.7148C47.3259 15.2628 49.0111 14.1116 50.9249 13.2611C52.8387 12.4105 54.9191 11.9853 57.1658 11.9853C59.4958 11.9853 61.6799 12.4209 63.7188 13.2921C65.7574 14.1633 67.5256 15.3457 69.0235 16.8393C70.5214 18.3329 71.7072 20.0959 72.5809 22.1288C73.4547 24.1617 73.8914 26.319 73.8914 28.6008C73.8914 30.8824 73.4547 33.0294 72.5809 35.0414C71.7072 37.0536 70.5214 38.8065 69.0235 40.2998C67.5256 41.7934 65.7574 42.9758 63.7188 43.847C61.6799 44.7182 59.4957 45.1538 57.1658 45.1538C54.919 45.1538 52.8284 44.7285 50.8937 43.878C48.959 43.0276 47.2635 41.8763 45.8073 40.4243V44.407H39.5664V0.846191H45.8697ZM46.5874 32.8946C47.149 34.2223 47.9292 35.3839 48.9278 36.3796C49.9263 37.3753 51.0913 38.1636 52.4227 38.7444C53.7542 39.3252 55.1895 39.6156 56.729 39.6156C58.2269 39.6156 59.6414 39.3252 60.9728 38.7444C62.3041 38.1636 63.4586 37.3754 64.4366 36.3796C65.4143 35.384 66.1944 34.2223 66.7768 32.8946C67.3593 31.5671 67.6506 30.1358 67.6506 28.6008C67.6506 27.0658 67.3593 25.6241 66.7768 24.2757C66.1944 22.9274 65.4143 21.7555 64.4366 20.7598C63.4587 19.7642 62.3043 18.9862 60.9728 18.4262C59.6413 17.8662 58.2268 17.586 56.729 17.586C55.2312 17.586 53.8166 17.8661 52.4852 18.4262C51.1539 18.9864 49.9889 19.7642 48.9902 20.7598C47.9918 21.7555 47.2012 22.9274 46.6187 24.2757C46.0362 25.6241 45.745 27.0658 45.745 28.6008C45.7449 30.1358 46.0257 31.5671 46.5874 32.8946Z" fill="#232121"/>
<path d="M77.4472 22.1902C78.2792 20.1988 79.4236 18.4461 80.8796 16.9318C82.3357 15.4176 84.0626 14.2248 86.0597 13.3536C88.0568 12.4824 90.2203 12.0469 92.5502 12.0469C94.8386 12.0469 96.9605 12.4618 98.9161 13.2914C100.871 14.1211 102.557 15.2724 103.971 16.7452C105.386 18.2179 106.488 19.9605 107.279 21.9725C108.069 23.9846 108.465 26.1731 108.465 28.5379V30.5915H82.5648C82.7729 31.8776 83.189 33.0703 83.813 34.1695C84.4372 35.2689 85.2172 36.2232 86.1533 37.0321C87.0894 37.8412 88.1504 38.4739 89.3362 38.9301C90.522 39.3865 91.7805 39.6148 93.112 39.6148C96.8983 39.6148 99.9563 38.0589 102.286 34.9474L106.842 38.3077C105.261 40.4236 103.306 42.0831 100.976 43.2862C98.6457 44.4892 96.0245 45.0908 93.1121 45.0908C90.7405 45.0908 88.5251 44.6758 86.4655 43.8462C84.406 43.0166 82.617 41.8548 81.0984 40.3612C79.5798 38.8676 78.3836 37.1149 77.5099 35.1028C76.6362 33.0908 76.1992 30.9023 76.1992 28.5376C76.1989 26.2974 76.6152 24.1816 77.4472 22.1902ZM86.2157 19.732C84.4474 21.2048 83.2721 23.1651 82.6896 25.6128H102.099C101.558 23.1651 100.403 21.2048 98.6352 19.732C96.8669 18.2593 94.797 17.5229 92.4255 17.5229C90.0539 17.5229 87.984 18.2593 86.2157 19.732Z" fill="#232121"/>
<path d="M120.261 20.4496C118.93 21.9016 118.264 23.8722 118.264 26.3615V44.4083H111.961V12.671H118.202V16.5915C118.992 15.3054 120.022 14.2889 121.291 13.5422C122.56 12.7953 124.068 12.4219 125.816 12.4219H128V18.2715H125.379C123.299 18.2717 121.593 18.9976 120.261 20.4496Z" fill="#232121"/>
</svg>
